Coordinates
version=1
nRows=54
nColumns=12
inDegrees=yes

Units are S.I. units (second, meters, Newtons, ...)
Angles are in degrees

endheader
time	SC_y	SC_z	SC_x	AC_y	AC_z	AC_x	GH_y	GH_z	GH_yy	EL_x	PS_y
       0.0              -44.07          31.12          39.15          34.55         -19.69          11.09          119.9          11.29          102.0           38.2          19.31
   0.02947              -44.08          31.11          39.15          34.55         -19.68          11.09          119.9           11.3          102.0          38.21          19.32
   0.05894              -44.08          31.11          39.15          34.56         -19.68          11.08          119.9          11.31          102.0          38.22          19.32
   0.08842              -44.08          31.11          39.15          34.56         -19.67          11.08          119.9          11.32          102.0          38.24          19.33
    0.1179              -44.08           31.1          39.15          34.57         -19.67          11.08          119.9          11.34          102.0          38.25          19.34
    0.1474              -44.08          31.09          39.15          34.57         -19.66          11.07          119.9          11.35          102.0          38.27          19.35
    0.1768              -44.08          31.09          39.15          34.58         -19.66          11.07          119.9          11.36          102.0          38.29          19.35
    0.2063              -44.08          31.08          39.15          34.58         -19.65          11.06          119.9          11.38          102.0           38.3          19.36
    0.2358              -44.08          31.08          39.15          34.59         -19.64          11.06          119.9          11.39          102.0          38.32          19.37
    0.2652              -44.08          31.07          39.15           34.6         -19.64          11.05          119.9          11.41          102.0          38.34          19.38
    0.2947              -44.08          31.06          39.15           34.6         -19.63          11.04          119.9          11.43          102.0          38.37          19.39
    0.3242              -44.08          31.05          39.15          34.61         -19.62          11.04          119.9          11.45          102.1          38.39          19.41
    0.3537              -44.09          31.04          39.15          34.62         -19.61          11.03          119.9          11.47          102.1          38.42          19.42
    0.3831              -44.09          31.04          39.15          34.63          -19.6          11.02          119.8           11.5          102.1          38.45          19.43
    0.4126              -44.09          31.03          39.15          34.64         -19.59          11.01          119.8          11.52          102.1          38.48          19.45
    0.4421              -44.09          31.01          39.15          34.65         -19.58           11.0          119.8          11.55          102.1          38.51          19.46
    0.4716              -44.09           31.0          39.15          34.66         -19.57          10.99          119.8          11.58          102.1          38.55          19.48
     0.501              -44.09          30.99          39.15          34.67         -19.55          10.98          119.8          11.61          102.1          38.58           19.5
    0.5305               -44.1          30.97          39.15          34.68         -19.54          10.97          119.8          11.65          102.1          38.63          19.52
      0.56               -44.1          30.96          39.15           34.7         -19.52          10.96          119.8          11.69          102.1          38.67          19.54
    0.5894               -44.1          30.94          39.15          34.71         -19.51          10.94          119.8          11.73          102.1          38.73          19.57
    0.6189               -44.1          30.92          39.15          34.73         -19.49          10.93          119.8          11.78          102.1          38.78           19.6
    0.6484              -44.11           30.9          39.15          34.75         -19.46          10.91          119.7          11.83          102.1          38.85          19.63
    0.6779              -44.11          30.88          39.15          34.77         -19.44          10.89          119.7          11.89          102.1          38.92          19.66
    0.7073              -44.11          30.85          39.15           34.8         -19.41          10.87          119.7          11.95          102.1          38.99           19.7
    0.7368              -44.12          30.82          39.15          34.82         -19.38          10.84          119.7          12.03          102.1          39.08          19.74
    0.7663              -44.12          30.79          39.15          34.85         -19.35          10.81          119.7          12.11          102.2          39.17          19.79
    0.7957              -44.13          30.75          39.15          34.88         -19.31          10.78          119.6           12.2          102.2          39.28          19.84
    0.8252              -44.14          30.71          39.15          34.92         -19.27          10.75          119.6           12.3          102.2          39.41           19.9
    0.8547              -44.14          30.67          39.15          34.97         -19.22          10.71          119.6          12.42          102.2          39.55          19.97
    0.8842              -44.15          30.61          39.15          35.01         -19.17          10.66          119.5          12.55          102.2           39.7          20.05
    0.9136              -44.16          30.55          39.15          35.07         -19.11          10.61          119.5           12.7          102.3          39.89          20.14
    0.9431              -44.17          30.48          39.15          35.14         -19.03          10.55          119.4          12.88          102.3           40.1          20.24
    0.9726              -44.18           30.4          39.15          35.21         -18.95          10.48          119.4          13.08          102.3          40.34          20.36
     1.002               -44.2           30.3          39.15           35.3         -18.85           10.4          119.3          13.32          102.4          40.63           20.5
     1.032              -44.21          30.19          39.15           35.4         -18.73          10.31          119.2           13.6          102.4          40.97          20.67
     1.061              -44.23          30.06          39.15          35.53          -18.6          10.19          119.1          13.94          102.4          41.37          20.86
      1.09              -44.26           29.9          39.14          35.68         -18.43          10.05          119.0          14.34          102.5          41.85           21.1
      1.12              -44.29           29.7          39.14          35.85         -18.23          9.889          118.8          14.83          102.6          42.43          21.38
     1.149              -44.32          29.46          39.14          36.07         -17.98          9.687          118.7          15.42          102.7          43.14          21.73
     1.179              -44.36          29.17          39.14          36.34         -17.68          9.438          118.4          16.16          102.8          44.02          22.16
     1.208              -44.42           28.8          39.14          36.68          -17.3          9.127          118.2          17.07          102.9          45.11          22.69
     1.238              -44.49          28.34          39.14          37.11         -16.83          8.735          117.8          18.22          103.1          46.49          23.37
     1.267              -44.58          27.75          39.14          37.64         -16.23          8.238          117.4          19.69          103.4          48.24          24.23
     1.297              -44.69           27.0          39.14          38.34         -15.45            7.6          116.8          21.56          103.7          50.48          25.32
     1.326              -44.83          26.04          39.13          39.22         -14.46          6.783          116.1          23.97          104.0          53.36          26.73
     1.356              -45.01          24.81          39.13          40.35         -13.19          5.738          115.2          27.04          104.5          57.04          28.53
     1.385              -45.24          23.26          39.13          41.78          -11.6          4.425          114.0           30.9          105.1          61.66          30.79
     1.415              -45.52          21.37          39.12          43.51          -9.66          2.824          112.6          35.61          105.9          67.29          33.55
     1.444              -45.85          19.19          39.12          45.52         -7.409          0.969          111.0          41.07          106.8          73.82          36.74
     1.474               -46.2          16.82          39.11           47.7         -4.973          -1.04          109.2          46.98          107.7          80.88           40.2
     1.503              -46.56          14.45           39.1          49.88         -2.536         -3.049          107.4          52.89          108.6          87.95          43.66
     1.533              -46.88          12.26           39.1          51.89        -0.2863         -4.904          105.8          58.34          109.5          94.48          46.85
     1.562              -47.16          10.38          39.09          53.63          1.655         -6.504          104.4          63.05          110.3          100.1          49.61
